# xmcd CD database file
#
# Track frame offsets:
#	150
#	22154
#	39661
#	54799
#	70385
#	83827
#
# Disc length: 1416 seconds
#
# Revision: 0
# Processed by: cddbd v1.5.2PL0 Copyright (c) Steve Scherf et al.
# Submitted via: CDex 1.51
#
DISCID=49058606
DTITLE=Indaba Session Sampler - Swing the Circle
DYEAR=2011
DGENRE=Jazz
TTITLE0=Swing the Circle
TTITLE1=A Thing Like Swing Won't Die
TTITLE2=The Second Breath
TTITLE3=I Need To Know
TTITLE4=A Special Place
TTITLE5=Paella
EXTD=YEAR: 2011
EXTT0=
EXTT1=
EXTT2=
EXTT3=
EXTT4=
EXTT5=
PLAYORDER=
